# xmcd
#
# Track frame offsets: 
#        150
#        12846
#        24937
#        43863
#        59850
#        73264
#        87499
#        105321
#        120398
#        136495
#        155779
#        165473
#        180150
#        192427
#        209881
#        224440
#        233975
#        246471
#        260207
#        274672
#        291918
#        308067
#
# Disc length: 4436 seconds
#
# Revision: 0
# Processed by: cddbd v1.5.2PL0 Copyright (c) Steve Scherf et al.
# Submitted via: ExactAudioCopy v1.3
#
DISCID=57115216
DTITLE=Various Artist - Too Late To Pray:  Defiant Chicago Roots
DYEAR=2019
DGENRE=Blues
TTITLE0=Wild Earp and the Free For Alls - The Last Honky Tonk In Chicago
TTITLE1=Tammi Savoy and the Chris Casello Combo - If It's News To You
TTITLE2=Jon Langford's Hillbilly Lovechild - I'm A Big Town
TTITLE3=Half Gringa - Wearing White
TTITLE4=Brendan Kelly and the Wandering Birds - Lay Me Down
TTITLE5=The Family Gold - The Sun Is Going Down
TTITLE6=Big Sadie - You Never Told Me
TTITLE7=Rookie - Head Over Heels
TTITLE8=The Dyes - Liza Jane
TTITLE9=Robbie Fulks - Lonely Ain't Hardly Alive
TTITLE10=Freakwater - Sway
TTITLE11=David Quinn - Long Time Gone
TTITLE12=The Hoyle Brothers - A Little Bit Of Buck
TTITLE13=Bethany Thomas and Tawny Newsome - Dinosaur
TTITLE14=Sima Cunningham - Weeds And Daisies
TTITLE15=The Lawrence Peters Outfit - I Wrote You A Song
TTITLE16=Kelly Hogan - Gotta Have My Baby Back
TTITLE17=The Saluda Moonlighters - Honky Tonkin' In The Moonlight
TTITLE18=Los Gallos - Yeah Yeah Yeah
TTITLE19=Joybird - The Sweetness
TTITLE20=The Western Elstons - Toast That Lie
TTITLE21=The Handsome Family - Tower Of Song
EXTD=
EXTT0=
EXTT1=
EXTT2=
EXTT3=
EXTT4=
EXTT5=
EXTT6=
EXTT7=
EXTT8=
EXTT9=
EXTT10=
EXTT11=
EXTT12=
EXTT13=
EXTT14=
EXTT15=
EXTT16=
EXTT17=
EXTT18=
EXTT19=
EXTT20=
EXTT21=
PLAYORDER=
